/* XPM */
static char * xunlong128_xpm[] = {
"128 128 42 1",
" 	c None",
".	c #00BFFF",
"+	c #00BDFD",
"@	c #02BDFD",
"#	c #03BDFD",
"$	c #02BEFE",
"%	c #01BEFE",
"&	c #02BFFE",
"*	c #00BEFD",
"=	c #01BDFE",
"-	c #02BDFE",
";	c #02BEFD",
">	c #03BEFE",
",	c #02BFFF",
"'	c #03BDFE",
")	c #02BEFF",
"!	c #02BCFE",
"~	c #02BCFD",
"{	c #03BCFE",
"]	c #03BEFF",
"^	c #02BDFF",
"/	c #01BFFF",
"(	c #00BCFF",
"_	c #03BEFD",
":	c #01BEFF",
"<	c #01BDFF",
"[	c #01BFFE",
"}	c #01BCFE",
"|	c #03BCFD",
"1	c #00BCFD",
"2	c #03BFFF",
"3	c #02BFFD",
"4	c #03BDFF",
"5	c #03BFFE",
"6	c #02C0FF",
"7	c #03BFFD",
"8	c #00BDFF",
"9	c #00BFFE",
"0	c #01C0FF",
"a	c #02C0FD",
"b	c #00BEFF",
"c	c #02BBFD",
"                                                                                                                                ",
"                                                                                                                                ",
"                                                                                                                                ",
"                                                                                                                                ",
"                                                                                                                                ",
"                                                                                                                                ",
"                                                                                                                                ",
"                                                                                                                                ",
"                                                                                                                                ",
"                                                                                                                                ",
"                                                                                                                                ",
"                                                                                                                                ",
"                                                                                                                                ",
"                                                                                                                                ",
"                                                                                                                                ",
"                                                                                                                                ",
"                                                                                                                                ",
"                                                                                                                                ",
"                                                                                                                                ",
"                                                                                                                                ",
"                                                                                            .                                   ",
"                                                                                           +@                                   ",
"                                                                                          #$                                    ",
"                                                                                         %&$                                    ",
"                                                                                       *=-$                                     ",
"                                                                                      ;->$,                                     ",
"                                                                                     '>>$)                                      ",
"                                          +%$$$$$$$%;                              %$->>>                                       ",
"                                        >-$->>>>>>>--$!';                       ~'$$'>$-                                        ",
"                                      )'>>>>>>>>>>>>>>>{-]=@~                ;@>$>>>>$%                                         ",
"                                     @$>>>>>>>>>>>>>>>>>>>>>'-%);^        ^)->>>>>>>$/(                                         ",
"                                     $>>>>>>>>>>>>>>>>>>>>>>>>>>>>>>>>>>>>>>>>>>>>>$=+                                          ",
"                                    $$>>>>>>>>>>>>>>>>>>>>>>>>>>>>>>>>>>>>>>>>>>>>>>                                            ",
"                                   ;>'>>>>>>>>>>>>>>>>>>>>>>>>>>>>>>>>>>>>>>>>>>'$^                                             ",
"                                   ->>>>>>>>>>>>>>>>>>>>>>>>>>>>>>>>>>>>>>>>>>'-%                                               ",
"                                  %>>>>>>>>>>>>>>>>>>>>>>>>>>>>>>>>>>>>>>>>>$-{@                                                ",
"                                 _>>>>>>>>>>>>>>>>>>>>>>>>>>>>>>>>>>>>>>$$$$%+                                                  ",
"                                =-'>>>>>>>>>>>>>>>>>>>>>>>>>>>>>>>>>>>>'$>                                                      ",
"                               >$>>>>>>>>>>>>>>>>>>>>>>>>>>>>>>>'$-:<^^                                                         ",
"                              [>>>>>>>>>>>>>>>''$$-$$$$->>>>{}=@;~                                                         ;;@  ",
"                            ''>>>>>>>>>>$$$$$)->%%;@)                                      =                @%@        ,)&&$@   ",
"                         %$--'>>>>>>>>>>$>|                                             1%$'              1%$$---$--$&$$$-$     ",
"_##@;~             @;]2{-$>>>>>>>>>>$'^                @3@#422>''#;@~                 @:-$$             ^<$$>>>>'>>>>>>>$;      ",
"'!'-$$$->'''>'>>5$$$$'>>>>>>>>>'>$])             ^,)=>--$$5'>>>>>>$-$$>%<)^          @-$>''    ;)@   ,;%$$>>>>>>>>>>>$&4        ",
";$>>>>>>>>>>>>>>>>>>>>>>>>>>>-,]>           675-'>>>>>>>>>>>>>>>>>>>>>>>>>>>$[~    )$>>>>$@   >>>>5>>>>>>>>>>>>>>>>$$%*         ",
" >'>>>>>>>>>>>>>>>>>>>>>>>-$-}+         #{->>>>>>>>>>>>>>>>>>>>>>>>>>>>>>>>>>>>'$&&>>>>>>]  ^$>>>>>>>>>>>>>>>>>>$$$%8           ",
" ]>>>>>>>>>>>>>>>>>>>>>>>>$7        @%-$&$$>>>>>>>>>>>>>>>>>>>>>>>>>>>>>>>>>>>>>$$->>>>>>')}$$>>>>>>>>>>>>>>>>>>-:              ",
"  %>>>>>>>>>>>>>>>>>>>>>-;        @>$$'>>>>>>>>>>>>>>>>>>>>>>>>>>>>>>>>>>>>>>>>>>>>>>>>>'-$-'>>>>>>>>>>>>>>>>--@                ",
"   $>>>>>>>>>>>>>>>>>$%%        [$>>>>>>>>>>>>>>>>>>>>>>>>>>>>>>>>>>>>>>>>>>>>>>>>>>>>>>''>>>>>>>>>>>>>>>>5$}@                  ",
"   @$->>>>>>>>>>>>>--=1      ;$>>>>>>>>>>>>>>>>>>-$---$->>>>'>>>>>>>>>>>>>>>>>>>>>>>>>>>>>>>>>>>>>>>>>>>$$&;                    ",
"    -$>>>>>>>>>>>>>$,      9=-->>>>>>>>>>>>>>>>>'$->5>-->>>'>'>>>>>>>>>>>>>>>>>>>>>>>>>>>>>>>>>>>>>>>>>>>                       ",
"     =$>>>>>>>>>'-)     )>--$>>>>>>>>>'$%;^                      )@>>$>>>>>>>>>>>>>>>>>>>>>>>>>>>>>'->)                         ",
"      ;$>>>>>$$/,      ;$>>>>>>>>-$=@)                               '>>>>>>>>>>>>>>>>>>>>>>>>>>>$=;+                           ",
"       @$&$--[;      )$$>>>>>$$>>;                                   '>>>>>>>>>>>>>>>>>>>>>>>>>$$%                              ",
"         *@@       @$>>>>$&$&0                                      >>>>>>>>>>>>>>>>>>>>>>>>>>>$#                               ",
"                  %-$>>>>$;                                       *-'>>>>>>>>>>>>>>>>>>>>>>>>>>$$                               ",
"                 >$>>$%;                                         @-'>>>>>>>>>>>>>>>>>>>>>>>>>>>>'                               ",
"                :>'$%)                                          %$>>>>>>>>>>>>>>>>>>>>>>>>>>>>>>>%                              ",
"               :$)2                                            >$>>>>>>>>>>>>>>>>>>>>>>>>>>>>>>>>>;                             ",
"              <$,                                             =-$>>>>>>>>>>>>>>>>>>>>>>>>>>>>>>>>><                             ",
"                                                             =->>>>>>>>>>>>>>>>>>>>>>>>>>>>>>>>>>>&                             ",
"                                                            =$>>>>>>>>>>>>>>>$-3@&->>>>>>>>>>>>>>>-@                            ",
"                                                           [$>>>>>>>>>>>>>>$$=   )$>>>>>>>>>>>>>>>']                            ",
"                                                          '>>>>>>>>>>>>>>>$:.     $>>>>>>>>>>>>>>>>)                            ",
"                                                        3&>>>>>>>>>>>>>>'>@       $>>>>>>>>>>>>>>>>-                            ",
"                                                        ->>>>>>>>>>>>>>$}         %$>>>>>>>>>>>>>>>-                            ",
"                                                       %$>>>>>>>>>>>>>>~          =$>>>>>>>>>>>>>>>$@                           ",
"                                                      &$>>>>>>>>>>>&-{            [$>>>>>>>>>>>>>>>$~                           ",
"                                                     '>>>>>>>>>>>$$%+             @->>>>>>>>>>>>>>>-[                           ",
"                                                    %$>>>>>>>>>>>-~               =$>>>>>>>>>>>>>>>$%                           ",
"                                                   %$>>>>>>>>>>->                 =$>>>>>>>>>>>>>>>-=                           ",
"                                                  .$>>>>>>>>>5&%                  $>>>>>>>>>>>>>>>>$@                           ",
"                                                  $>>>>>>>>>$-)                   )>>>>>>>>>>>>>>>>$(                           ",
"                                                 -->>>>>>>>>'                     $>>>>>>>>>>>>>>>>$                            ",
"                                                %>>>>>>>>>-^                     a$>>>>>>>>>>>>>>>>-                            ",
"                                               )$>>>>>>>$%                       >$>>>>>>>>>>>>>>>>'                            ",
"                                              )->>>>>>-$%                        5>>>>>>>>>>>>>>>>$)                            ",
"                                              $>>>>>>-%@                        ^>>>>>>>>>>>>>>>>>$                             ",
"                                             )->>>>>>-                          %>>>>>>>>>>>>>>>>>'                             ",
"                                            )>'>>>>'%                          @->>>>>>>>>>>>>>>>$)                             ",
"                                            $>>>>$$^                           /'>>>>>>>>>>>>>>>>%                              ",
"                                           :>>>>$=;                           @$>>>>>>>>>>>>>>>-$                               ",
"                                          ;$>>>>$                             =$>>>>>>>>>>>>>>>$>                               ",
"                                          ->>>>%                             ;$>>>>>>>>>>>>>>>'$                                ",
"                                         =$>>$)    @^                        -$>>>>>>>>>>>>>>>)b                                ",
"                                        @->--@    ;-+                       :>>>>>>>>>>>>>>>>-:                                 ",
"                                        '>$%*    &-=                       @'>>>>>>>>>>>>>>>'=                                  ",
"                                       ;>>-    @$$$)                      )$>>>>>>>>>>>>>>>>>)                                  ",
"                                      @-$>    b&>>'                       -'>>>>>>>>>>>>>>'>)                                   ",
"                                      :$:    )$>>)]                      =$>>>>>>>>>>>>>>>$>                                    ",
"                                     ,$=    ~'>>>)                      $$>>>>>>>>>>>>>>>$:                                     ",
"                                     /;    ($>>>>$                     =-$>>>>>>>>>>>>>>>]                                      ",
"                                    @     @->>>>>>                   .%->>>>>>>>>>>>>>>>%                                       ",
"                                         ~$>>>>>$[                  c=$>>>>>>>>>>>>>>>$%                                        ",
"                                         $>>>>>>$%                 ;'>>>>>>>>>>>>>>>>$%                                         ",
"                                        >'>>>>>>''                %>>>>>>>>>>>>>>>>'-=                                          ",
"                                       %>>>>>>>>>$              =-->>>>>>>>>>>>>>>>>)                                           ",
"                                      @$>>>>>>>>>$-)          )]$>>>>>>>>>>>>>>>>-'                                             ",
"                                      =>>>>>>>>>>>>-%,^   )^:-$>>>>>>>>>>>>>>>>'-^                                              ",
"                                      ->>>>>>>>>>>>>>>>>>>>>>>>>>>>>>>>>>>>>>$-]                                                ",
"                                     @$>>>>>>>>>>>>>>>>>>>>>>>>>>>>>>>>>>>>$$[8                                                 ",
"                                     ~$>>>>>>>>>>>>>>>>>>>>>>>>>>>>>>>>>>>>$,                                                   ",
"                                      &>>>>>>>>>>>>>>>>>>>>>>>>>>>>>>>>>--;                                                     ",
"                                      :'>>>>>>>>>>>>>>>>>>>>>>>>>>>>>>$-%                                                       ",
"                                      ~->>>>>>>>>>>>>>>>>>>>>>>>>>>--$=1                                                        ",
"                                       @>>>>>>>>>>>>>>>>>>>>>>>>>>>-$                                                           ",
"                                        ^->>>>>>>>>>>>>>>>>>>>>>>=8                                                             ",
"                                          %$>>>>>>>>>>>>>>>>>$')                                                                ",
"                                           ;>$-$>>'''$$-$$-'_                                                                   ",
"                                              b=$--$-%%=@                                                                       ",
"                                                                                                                                ",
"                                                                                                                                ",
"                                                                                                                                ",
"                                                                                                                                ",
"                                                                                                                                ",
"                                                                                                                                ",
"                                                                                                                                ",
"                                                                                                                                ",
"                                                                                                                                ",
"                                                                                                                                ",
"                                                                                                                                ",
"                                                                                                                                ",
"                                                                                                                                ",
"                                                                                                                                ",
"                                                                                                                                ",
"                                                                                                                                ",
"                                                                                                                                ",
"                                                                                                                                "};
