<svg width="100" height="100" viewBox="0 0 100 100" fill="none" xmlns="http://www.w3.org/2000/svg">
<path fill-rule="evenodd" clip-rule="evenodd" d="M35.177 32.0729C41.5173 30.9274 55.3031 32.6005 64.3232 26.5093C71.8988 21.3935 73.8704 13.9922 73.8704 13.9922C73.8704 13.9922 68.8515 21.268 58.2925 23.7282C55.16 24.4579 50.3736 23.8798 46.2317 22.8009C41.7762 21.6401 37.9454 19.9754 34.1718 20.9464C32.2679 21.4364 30.3013 22.4548 29.1462 23.7282C27.8679 25.1379 27.4435 26.8531 26.1312 28.3638C24.7214 29.9871 22.4717 31.409 20.6035 32.0729C16.297 33.6028 11.7166 33.5323 8.04051 33.4634C3.30374 33.3754 0 33.0002 0 33.0002C0 33.0002 0.39218 35.6488 2.00971 38.0998C3.53458 40.41 6.25005 42.5241 7.53746 42.7362C10.8619 43.2829 15.6979 39.256 21.1057 36.7093C27.0985 33.8869 34.1047 32.2666 35.1762 32.0729H35.177ZM90.9559 32.0729C87.8813 32.4642 85.4281 31.1456 85.4281 31.1456C85.4281 31.1456 82.2568 33.2988 79.3982 33.9275C77.0269 34.4481 74.8757 33.4642 74.8757 33.4642L69.8502 37.1733L72.3629 30.6831L63.8202 35.3187C63.8202 35.3187 58.467 33.3608 50.755 33.0009C45.6194 32.7613 39.0897 33.5936 33.6695 34.8555C27.5725 36.2751 19.7116 39.6113 15.5788 42.2729C10.6807 45.4276 10.0511 47.8366 10.0511 47.8366C10.0511 47.8366 21.5608 42.1451 32.6643 40.4191C43.9216 38.6687 54.7752 40.8824 54.7752 40.8824C54.7752 40.8824 46.259 47.3327 39.6995 55.254C32.4715 63.9831 27.1365 74.262 27.1365 74.262C27.1365 74.262 36.3668 65.8063 46.2317 58.4991C53.9363 52.793 62.8149 47.8366 62.8149 47.8366C62.8149 47.8366 64.6691 49.5855 64.3224 53.8635C63.4156 65.0589 54.3417 73.5744 48.7444 76.1165C47.2825 76.7804 45.2306 77.1104 43.7189 77.0438C42.0377 76.9695 40.9373 76.442 40.2017 76.1165C38.7505 75.4749 38.3724 73.5522 39.1964 71.0169C40.2216 67.8653 42.7137 64.0627 42.7137 64.0627C42.7137 64.0627 34.7584 69.5238 31.1559 74.262C28.1277 78.2445 29.1239 81.4528 31.1559 83.0707C32.2928 83.9758 34.046 85.4368 37.1859 85.8525C41.3849 86.4085 50.4075 86.0692 65.3269 76.1165C69.3364 73.4419 76.9168 65.245 78.3921 58.0358C80.1139 49.6237 75.3771 42.2729 75.3771 42.2729C75.3771 42.2729 85.6573 38.4428 92.4625 34.8555C97.7851 32.0492 100 29.2926 100 29.2926C100 29.2926 95.025 31.556 90.9551 32.0744L90.9559 32.0729Z" fill="#03BEFE"/>
</svg>
